<?xml version="1.0" encoding="UTF-8" standalone="no"?>
<svg
   viewBox="0 0 63.602 63.602585"
   version="1.1"
   id="svg24"
   xml:space="preserve"
   width="63.602001"
   height="63.602585"
   xmlns="http://www.w3.org/2000/svg"
   xmlns:svg="http://www.w3.org/2000/svg"><defs
     id="defs6"><linearGradient
       id="swatch31"><stop
         style="stop-color:#000000;stop-opacity:1;"
         offset="0"
         id="stop31" /></linearGradient></defs><!-- Background circle for the icon --><!-- Eye outer shape (larger) --><!-- Eye inner (iris) --><!-- AI circuit pattern inside eye --><!-- Eye highlight --><!-- App name --><!-- Subtle tagline --><g
     id="g32"
     transform="translate(-30.621778,-26.918251)"><ellipse
       style="fill:#6341e9;fill-opacity:1;stroke-width:0.854437"
       id="path30"
       cx="62.422779"
       cy="58.719543"
       rx="31.801001"
       ry="31.801292" /><g
       style="fill:#000000"
       id="g31"
       transform="matrix(0.25862017,0,0,0.25862017,29.319398,25.618276)"><path
         d="m 243.65527,126.37561 c -0.33886,-0.7627 -8.51172,-18.8916 -26.82715,-37.208 -16.957,-16.96 -46.13281,-37.17578 -88.82812,-37.17578 -42.69531,0 -71.87109,20.21581 -88.82812,37.17577 -18.31543,18.31641 -26.48829,36.44531 -26.82715,37.208 a 3.9975,3.9975 0 0 0 0,3.249 c 0.33886,0.7627 8.51269,18.88672 26.82715,37.19922 16.957,16.95606 46.13378,37.168 88.82812,37.168 42.69434,0 71.87109,-20.21191 88.82812,-37.168 18.31446,-18.3125 26.48829,-36.43652 26.82715,-37.19922 a 3.9975,3.9975 0 0 0 0,-3.24899 z m -32.6914,34.999 C 187.88965,184.34534 159.97656,195.99182 128,195.99182 c -31.97656,0 -59.88965,-11.64648 -82.96387,-34.61719 A 135.65932,135.65932 0 0 1 20.44336,127.99963 135.63241,135.63241 0 0 1 45.03711,94.61584 C 68.11133,71.64123 96.02344,59.99182 128,59.99182 c 31.97656,0 59.88867,11.64941 82.96289,34.624 a 135.65273,135.65273 0 0 1 24.59375,33.38379 135.62168,135.62168 0 0 1 -24.59277,33.37502 z"
         fill="#000000"
         id="path1-4" /><path
         d="M 210.96387,161.37463 C 187.88965,184.34534 159.97656,195.99182 128,195.99182 c -31.97656,0 -59.88965,-11.64648 -82.96387,-34.61719 A 135.65932,135.65932 0 0 1 20.44336,127.99963 135.63241,135.63241 0 0 1 45.03711,94.61584 C 68.11133,71.64123 96.02344,59.99182 128,59.99182 c 31.97656,0 59.88867,11.64941 82.96289,34.624 a 135.65273,135.65273 0 0 1 24.59375,33.38379 135.62168,135.62168 0 0 1 -24.59277,33.37502 z"
         fill="#ffffff"
         id="path2" /></g><circle
       style="fill:#000000;fill-opacity:1"
       id="path29"
       cx="62.422779"
       cy="58.719543"
       r="15" /><circle
       style="fill:#ffffff;fill-opacity:1"
       id="path29-6"
       cx="62.422779"
       cy="58.719543"
       r="13" /><path
       d="m 66.975256,66.006394 c -0.0803,-0.03245 -0.167372,-0.05124 -0.259601,-0.05124 -0.09223,0 -0.179333,0.01878 -0.259601,0.05124 -0.0803,0.03417 -0.153714,0.08198 -0.213487,0.143465 l -0.0056,0.0034 c -0.03411,0.03417 -0.06668,0.07345 -0.09223,0.116135 -0.01404,0.02219 -0.02737,0.04611 -0.0393,0.07173 H 65.02774 v -0.935941 c -0.16566,0.07686 -0.338171,0.134931 -0.514079,0.170792 -0.03074,0.0069 -0.0598,0.01193 -0.09054,0.01708 v 1.048664 c 0,0.08368 0.03411,0.158836 0.08886,0.21349 0.05475,0.05466 0.12985,0.08882 0.213487,0.08882 h 1.390248 c 0.0098,0.02049 0.02218,0.04099 0.03594,0.06149 0.02386,0.03587 0.05124,0.07003 0.08198,0.100764 l 0.0056,0.0052 c 0.06149,0.06149 0.136588,0.112723 0.220323,0.14688 0.0803,0.03246 0.167387,0.05124 0.259602,0.05124 0.08886,0 0.175921,-0.01708 0.254491,-0.04953 l 0.0056,-0.0018 c 0.08367,-0.03417 0.157125,-0.08539 0.220324,-0.14688 0.06148,-0.06149 0.112723,-0.13663 0.146877,-0.220322 0.03243,-0.08027 0.05124,-0.167377 0.05124,-0.259606 0,-0.09052 -0.01881,-0.177623 -0.05124,-0.259603 -0.03425,-0.08368 -0.08535,-0.158836 -0.146877,-0.220322 -0.065,-0.05977 -0.140098,-0.111011 -0.223735,-0.145172 z m -4.927341,-6.4047 h -1.263866 l -0.181031,0.594355 h -1.137484 l 1.357793,-3.607127 h 1.219464 l 1.35267,3.607127 h -1.1665 z m -0.235695,-0.782227 -0.394532,-1.296312 -0.396231,1.296312 z m 1.897491,-2.232253 h 1.118701 v 3.607128 h -1.118701 z m -0.852235,-3.697646 c -0.184471,0.133218 -0.355255,0.312549 -0.503845,0.544825 -0.007,0.01193 -0.01713,0.02219 -0.02906,0.02903 -0.04618,0.02905 -0.10767,0.01537 -0.136588,-0.02903 -0.14859,-0.232276 -0.319374,-0.411608 -0.503831,-0.544825 -0.198115,-0.143465 -0.411616,-0.233987 -0.631926,-0.278391 h -0.0042 c -0.2152,-0.0444 -0.435523,-0.0444 -0.647297,-0.0069 -0.223749,0.03928 -0.440647,0.121259 -0.635352,0.233987 -0.192991,0.112723 -0.367201,0.257895 -0.51238,0.425271 -0.140097,0.162253 -0.252764,0.348416 -0.32621,0.548242 v 0 c -0.01123,0.03074 -0.02218,0.06319 -0.03243,0.09735 -0.0084,0.03076 -0.01881,0.0649 -0.02569,0.09906 -0.0084,0.0444 -0.04618,0.07686 -0.09391,0.07857 -0.228858,0.03417 -0.456018,0.117847 -0.667792,0.242524 -0.2152,0.128095 -0.415028,0.302302 -0.587525,0.510669 -0.170784,0.208365 -0.31425,0.454307 -0.41674,0.727573 -0.0956,0.256188 -0.1537,0.537996 -0.16566,0.836881 -0.0014,0.03928 -0.0014,0.07686 -0.0014,0.116134 0,0.03587 0.0014,0.07345 0.0014,0.112724 0.0014,0.03245 -0.01263,0.06661 -0.04099,0.0871 -0.140097,0.100763 -0.266437,0.20495 -0.379161,0.312549 -0.114408,0.111011 -0.2152,0.225445 -0.302304,0.343291 -0.141754,0.192995 -0.245943,0.39453 -0.315963,0.597772 -0.07342,0.211782 -0.109355,0.428688 -0.112724,0.642178 -0.0014,0.204951 0.02569,0.408193 0.08366,0.604603 0.05812,0.199827 0.146892,0.39453 0.261314,0.57557 v 0 c 0.065,0.104189 0.138413,0.206657 0.218611,0.302301 0.08198,0.09735 0.170798,0.18958 0.266438,0.276684 0.02386,0.02221 0.03762,0.05807 0.03074,0.09223 -0.02737,0.129807 -0.04099,0.257895 -0.04618,0.384282 -0.0042,0.129807 0.0042,0.257897 0.02049,0.382575 0.03243,0.228861 0.09911,0.447475 0.192992,0.649009 0.09911,0.215198 0.228859,0.411608 0.379147,0.584107 0.145179,0.169086 0.310854,0.315967 0.488474,0.437229 0.179333,0.122971 0.368914,0.218613 0.563618,0.285223 0.08703,0.02904 0.175908,0.05294 0.266438,0.07002 0.08535,0.01708 0.170784,0.02732 0.254477,0.03074 0.04618,-0.0018 0.08886,0.03074 0.09911,0.07857 0.04436,0.203242 0.12634,0.39453 0.23912,0.567029 0.117918,0.18104 0.266438,0.341585 0.437222,0.474802 0.215199,0.167376 0.467978,0.293763 0.734402,0.360371 0.251066,0.06318 0.515791,0.07516 0.775406,0.02049 0.23227,-0.04781 0.457717,-0.146881 0.66608,-0.30401 0.191293,-0.145173 0.368914,-0.339875 0.517504,-0.592648 0.0084,-0.01537 0.02218,-0.02732 0.03931,-0.03587 0.04787,-0.02562 0.10767,-0.0069 0.133219,0.04099 0.122971,0.228861 0.273274,0.411609 0.440646,0.54995 0.181032,0.148589 0.38086,0.249357 0.590936,0.307426 0.26815,0.07344 0.548247,0.07344 0.819808,0.01707 0.290344,-0.05977 0.570441,-0.186164 0.811259,-0.360372 0.189581,-0.134932 0.356954,-0.300595 0.490172,-0.488464 0.126341,-0.175918 0.220324,-0.372328 0.274973,-0.578985 0.007,-0.03928 0.03762,-0.07345 0.0803,-0.08027 0.251052,-0.0444 0.498707,-0.148588 0.725867,-0.304009 0.227146,-0.155421 0.433811,-0.360371 0.602882,-0.604604 0.155427,-0.225444 0.280097,-0.48505 0.360379,-0.768564 0.0751,-0.264727 0.111039,-0.551658 0.09911,-0.85396 -0.0042,-0.03417 0.01123,-0.06832 0.04268,-0.08882 0.146877,-0.100763 0.276671,-0.206657 0.39282,-0.314257 0.117917,-0.112724 0.222022,-0.228862 0.310839,-0.350123 v 0 c 0.136588,-0.184455 0.237393,-0.375743 0.307428,-0.572154 0.07173,-0.203243 0.109354,-0.4099 0.116093,-0.616558 0.0056,-0.199827 -0.01881,-0.397946 -0.07005,-0.592648 -0.05124,-0.196411 -0.131534,-0.385991 -0.235695,-0.565322 l -0.0042,-0.0034 c -0.06836,-0.117848 -0.14859,-0.23057 -0.237408,-0.339875 -0.08886,-0.109313 -0.18958,-0.211785 -0.29718,-0.309135 -0.02569,-0.02219 -0.03931,-0.05808 -0.03243,-0.09394 0.02386,-0.117848 0.0393,-0.235694 0.04436,-0.351831 0.0056,-0.117848 0.0014,-0.233985 -0.0098,-0.348417 -0.02569,-0.237401 -0.08886,-0.462847 -0.181046,-0.67292 -0.09728,-0.22203 -0.227146,-0.426981 -0.379147,-0.606312 -0.146892,-0.174208 -0.315977,-0.326212 -0.497009,-0.452599 -0.181031,-0.126382 -0.374037,-0.225446 -0.57044,-0.292054 l -0.0056,-0.0018 c -0.104161,-0.03587 -0.210076,-0.06149 -0.314251,-0.07857 h -0.0042 c -0.102476,-0.01707 -0.204952,-0.02391 -0.305716,-0.02221 -0.04618,0.0034 -0.09054,-0.02732 -0.102476,-0.07514 -0.01713,-0.07002 -0.0393,-0.138343 -0.06485,-0.20495 -0.02737,-0.06832 -0.05812,-0.134931 -0.09391,-0.201536 -0.09223,-0.17079 -0.213501,-0.327919 -0.355255,-0.462845 -0.145165,-0.138343 -0.310839,-0.256189 -0.48846,-0.346709 -0.182744,-0.09223 -0.382572,-0.157128 -0.587524,-0.186162 -0.194705,-0.02732 -0.394533,-0.02391 -0.590936,0.01708 -0.220323,0.05294 -0.437235,0.143465 -0.635351,0.28693 z m 2.792443,1.923118 c 0.01263,-0.03758 0.04618,-0.06661 0.08886,-0.07002 0.07173,-0.0052 0.145165,-0.0018 0.218611,0.01025 0.0751,0.01193 0.150289,0.03074 0.225447,0.05636 0.141754,0.04781 0.283508,0.121258 0.415014,0.213491 0.12985,0.09052 0.252779,0.201534 0.358666,0.327919 l 0.0014,0.0034 c 0.111039,0.131506 0.204952,0.278392 0.274972,0.438935 0.06668,0.150298 0.111039,0.310842 0.12985,0.479926 0.01263,0.112724 0.01263,0.23057 -0.0014,0.350125 -0.01263,0.111011 -0.03762,0.225444 -0.07679,0.339875 l -0.0014,0.0069 c -0.02387,0.07173 -0.02218,0.146883 0,0.21349 0.02386,0.06832 0.06836,0.129807 0.131534,0.170794 l 0.0056,0.0034 c 0.119602,0.08882 0.225433,0.186162 0.317676,0.288638 0.0956,0.104189 0.17762,0.216905 0.245928,0.333044 0.0751,0.128095 0.133219,0.261313 0.169085,0.397946 0.03762,0.134931 0.05475,0.27156 0.04955,0.406485 -0.0042,0.140056 -0.03074,0.280098 -0.0803,0.418439 -0.04787,0.131507 -0.117918,0.261313 -0.210076,0.387698 l -0.0014,0.0018 c -0.08366,0.114436 -0.189581,0.227153 -0.31425,0.334753 -0.119602,0.102476 -0.257903,0.199826 -0.416741,0.293762 l -0.0056,0.0034 c -0.06317,0.03587 -0.109354,0.09052 -0.136588,0.153712 -0.02737,0.06318 -0.03594,0.133219 -0.02218,0.201536 l 0.0014,0.01362 c 0.03243,0.261311 0.01713,0.510668 -0.03594,0.737821 -0.05812,0.247649 -0.158838,0.469678 -0.290345,0.659257 -0.100791,0.145174 -0.216912,0.26985 -0.341582,0.368911 -0.128165,0.102476 -0.266437,0.177625 -0.408191,0.223737 h -0.0014 c -0.05124,0.01537 -0.10767,-0.01362 -0.122971,-0.06491 -0.192978,-0.630222 -0.526025,-0.833466 -1.089643,-1.123811 l -0.01263,-0.0069 c -0.07861,-0.03758 -0.163961,-0.04099 -0.240804,-0.01708 -0.07679,0.02391 -0.143467,0.07686 -0.182759,0.153714 l -0.0056,0.01025 c -0.03762,0.07857 -0.04099,0.16396 -0.01713,0.240817 0.02569,0.07686 0.0803,0.145172 0.158838,0.186164 0.471376,0.240816 0.819794,0.423563 0.81467,1.014503 -0.0014,0.175917 -0.05643,0.346707 -0.14859,0.500421 -0.09728,0.162252 -0.237393,0.307425 -0.399642,0.425272 -0.165675,0.11956 -0.351844,0.206658 -0.543123,0.249355 -0.182744,0.0427 -0.370626,0.0444 -0.546534,-0.0034 -0.297181,-0.08198 -0.490173,-0.280099 -0.61998,-0.520915 -0.122971,-0.228862 -0.191279,-0.495297 -0.240819,-0.737821 -0.0042,-0.0086 -0.0042,-0.01878 -0.0042,-0.02732 0,-0.122971 -0.0956,-0.203241 -0.220324,-0.239109 -0.05475,-0.01708 -0.114408,-0.02391 -0.17251,-0.02391 -0.0598,0 -0.117777,0.0086 -0.172497,0.02391 -0.122971,0.03758 -0.218611,0.117848 -0.218611,0.239109 0,0.0086 -0.0014,0.01537 -0.0042,0.02391 -0.0956,0.379159 -0.233982,0.664382 -0.396231,0.869331 -0.189581,0.240817 -0.411603,0.372326 -0.640475,0.420149 -0.167373,0.03417 -0.33987,0.02562 -0.503831,-0.01708 -0.172497,-0.04611 -0.336458,-0.129808 -0.479925,-0.239109 -0.141768,-0.111011 -0.259601,-0.245941 -0.341582,-0.397945 -0.07861,-0.145174 -0.124656,-0.305718 -0.124656,-0.469679 0,-0.621682 0.375751,-0.830048 0.872745,-1.084528 0.07861,-0.04099 0.133219,-0.109313 0.158852,-0.186164 0.02569,-0.07857 0.02049,-0.165667 -0.01881,-0.245941 -0.04099,-0.07857 -0.109354,-0.133219 -0.186169,-0.158835 -0.07693,-0.02391 -0.162249,-0.02049 -0.240819,0.01707 l -0.0056,0.0018 c -0.585812,0.298887 -0.935929,0.517501 -1.146005,1.168218 -0.01263,0.0427 -0.05292,0.07516 -0.09911,0.07345 -0.05812,-0.0018 -0.116093,-0.0086 -0.175908,-0.0205 -0.05812,-0.01193 -0.116093,-0.02732 -0.170798,-0.04781 -0.138273,-0.04781 -0.276685,-0.117848 -0.406493,-0.206659 -0.128025,-0.08882 -0.247641,-0.194702 -0.353528,-0.317672 -0.109355,-0.126382 -0.20324,-0.268143 -0.274973,-0.423564 -0.06836,-0.145175 -0.116093,-0.300594 -0.140097,-0.462846 v -0.0034 c -0.01713,-0.11956 -0.02049,-0.244233 -0.007,-0.372327 0.01263,-0.11956 0.03762,-0.244232 0.0803,-0.367202 l 0.0014,-0.0052 c 0.02386,-0.07004 0.02218,-0.143465 0.0014,-0.208366 l -0.0014,-0.0034 c -0.02218,-0.06832 -0.06668,-0.128095 -0.128165,-0.170792 l -0.0042,-0.0034 c -0.109354,-0.08198 -0.208363,-0.169085 -0.295453,-0.264727 -0.08886,-0.09564 -0.167387,-0.198119 -0.232284,-0.30401 -0.07861,-0.128095 -0.140097,-0.264728 -0.181046,-0.404778 -0.03931,-0.13663 -0.0598,-0.276682 -0.05812,-0.420148 0.0014,-0.145172 0.02737,-0.293763 0.07861,-0.438935 0.04955,-0.138342 0.121286,-0.276683 0.220309,-0.411609 0.08366,-0.114437 0.186169,-0.227153 0.309141,-0.334753 0.117917,-0.104189 0.251066,-0.203242 0.40478,-0.297178 0.05643,-0.03415 0.09728,-0.08198 0.124656,-0.13663 l 0.0014,-0.0052 c 0.02737,-0.05636 0.03762,-0.11956 0.02906,-0.182747 -0.0014,-0.0069 -0.0014,-0.01362 -0.0014,-0.02049 v -0.0034 c -0.0084,-0.05977 -0.01404,-0.11956 -0.01713,-0.177623 -0.0042,-0.06318 -0.0042,-0.126382 -0.0014,-0.187871 0.0084,-0.223739 0.05124,-0.433812 0.121287,-0.623391 0.0751,-0.203242 0.181031,-0.385989 0.307428,-0.54141 0.10416,-0.128095 0.223734,-0.235693 0.348418,-0.319381 0.124656,-0.08368 0.25619,-0.143465 0.391107,-0.177623 v 0 c 0.05124,-0.01537 0.10767,0.01362 0.122972,0.06491 0.105845,0.334753 0.23912,0.544827 0.493597,0.782228 l 0.0098,0.0086 c 0.06317,0.05807 0.145165,0.08539 0.225433,0.08198 0.0803,-0.0034 0.158838,-0.03587 0.216912,-0.09907 l 0.0056,-0.0069 c 0.05812,-0.06318 0.08535,-0.145175 0.08198,-0.225446 -0.0042,-0.08027 -0.03762,-0.160544 -0.102476,-0.22203 -0.204952,-0.189579 -0.25108,-0.307425 -0.312552,-0.498711 -0.07173,-0.220324 -0.0598,-0.435521 0.0098,-0.626808 0.04787,-0.131506 0.122971,-0.25448 0.218624,-0.36208 0.09391,-0.1076 0.208364,-0.203241 0.334746,-0.276681 l 0.0056,-0.0034 c 0.12985,-0.07514 0.269849,-0.129794 0.415014,-0.157128 0.138272,-0.02562 0.28011,-0.02732 0.418453,0.0018 0.19469,0.04099 0.385984,0.143466 0.555069,0.321089 0.14859,0.155421 0.280096,0.370618 0.384271,0.654133 l 0.0014,0.0034 c 0.03594,0.111011 0.152015,0.175916 0.288645,0.201535 0.06149,0.01193 0.12634,0.01537 0.189581,0.01193 h 0.0014 c 0.06499,-0.0034 0.12634,-0.01537 0.184456,-0.03417 0.102476,-0.03417 0.182745,-0.08882 0.201527,-0.158836 v -0.03928 c 0,-0.198119 0.117777,-0.408193 0.280111,-0.580692 0.17762,-0.187873 0.415013,-0.336463 0.614842,-0.377452 0.12634,-0.02562 0.254491,-0.02732 0.379161,-0.0086 0.12985,0.02049 0.25619,0.06149 0.375736,0.121259 l 0.0098,0.0034 c 0.121287,0.06149 0.232284,0.140055 0.329636,0.232278 0.0956,0.09223 0.177621,0.196411 0.239106,0.31084 0.09728,0.179333 0.141754,0.384284 0.111039,0.601189 -0.02737,0.18958 -0.03425,0.309134 -0.192992,0.498713 l -0.0014,0.0018 c -0.05643,0.06661 -0.0803,0.150297 -0.07342,0.232278 0.007,0.07857 0.04268,0.15542 0.105845,0.210073 l 0.0098,0.0086 c 0.06668,0.05466 0.148591,0.07686 0.228859,0.07002 0.07861,-0.0069 0.155426,-0.0427 0.210076,-0.105887 l 0.0084,-0.01193 c 0.163962,-0.194701 0.216899,-0.338168 0.292057,-0.584109 z m 3.750594,8.358561 c -0.03243,-0.08027 -0.05124,-0.167376 -0.05124,-0.259604 0,-0.09223 0.01881,-0.179332 0.05124,-0.259604 0.03411,-0.08027 0.08198,-0.153713 0.143466,-0.21349 l 0.0042,-0.0052 c 0.03411,-0.03417 0.07342,-0.06661 0.116093,-0.09223 0.02218,-0.01362 0.04618,-0.02732 0.07173,-0.03928 v -1.077697 h -1.325337 c 0.0014,-0.07002 0.0014,-0.140055 -0.0014,-0.211783 -0.0042,-0.03928 0.01404,-0.07857 0.04787,-0.100763 0.136588,-0.09394 0.261314,-0.191288 0.374037,-0.292056 h 1.205792 c 0.08366,0 0.158838,0.03417 0.213487,0.08882 0.05475,0.05466 0.08886,0.129807 0.08886,0.213491 v 1.390247 c 0.02049,0.01025 0.04099,0.02219 0.06149,0.03587 0.03594,0.02391 0.07005,0.05124 0.100791,0.08198 l 0.0056,0.0052 c 0.06149,0.06149 0.112724,0.13663 0.146878,0.220322 0.03243,0.08027 0.05124,0.167377 0.05124,0.259604 0,0.08882 -0.01713,0.174208 -0.04955,0.254481 l -0.0014,0.0052 c -0.03411,0.08368 -0.08535,0.157128 -0.146878,0.220322 -0.06149,0.06149 -0.136588,0.112723 -0.220309,0.14688 -0.0803,0.03245 -0.167387,0.05124 -0.259616,0.05124 -0.09054,0 -0.17762,-0.01878 -0.259601,-0.05124 -0.08366,-0.03415 -0.158838,-0.08539 -0.220323,-0.14688 -0.0598,-0.0649 -0.111039,-0.140056 -0.145165,-0.223739 z m 1.919698,-3.458538 h -1.801865 c 0.03074,-0.06661 0.05812,-0.133218 0.08198,-0.201535 0.04787,-0.133219 0.08198,-0.268144 0.102476,-0.403069 h 1.617394 c 0.01263,-0.02221 0.02386,-0.0444 0.03762,-0.06661 0.02569,-0.04099 0.05643,-0.07857 0.08886,-0.111011 0.06317,-0.0632 0.136588,-0.112724 0.220337,-0.146882 0.0803,-0.03245 0.167373,-0.05124 0.259601,-0.05124 0.08886,0 0.17421,0.01708 0.254478,0.04952 l 0.0056,0.0018 c 0.08366,0.03417 0.157139,0.08539 0.220323,0.146881 0.06149,0.06149 0.112724,0.13663 0.146892,0.220322 0.03243,0.08027 0.05124,0.167375 0.05124,0.259604 0,0.09051 -0.01881,0.177623 -0.05124,0.259604 -0.03411,0.08368 -0.08535,0.158835 -0.146892,0.22032 -0.06149,0.06149 -0.136588,0.112724 -0.220323,0.146882 -0.0803,0.03246 -0.167373,0.05124 -0.259601,0.05124 -0.08886,0 -0.17421,-0.01707 -0.254478,-0.04953 l -0.0056,-0.0018 c -0.08367,-0.03417 -0.157139,-0.08539 -0.220337,-0.146882 -0.03243,-0.03245 -0.06149,-0.06832 -0.08704,-0.1076 l -0.0042,-0.0052 c -0.01263,-0.0205 -0.02386,-0.0427 -0.03594,-0.06491 z m 0.573866,-1.653268 h -2.266419 c -0.05812,-0.191287 -0.140097,-0.37745 -0.242517,-0.555074 l -0.0042,-0.0052 c -0.0084,-0.01537 -0.01713,-0.02904 -0.02569,-0.0444 h 2.237374 v -1.972618 c -0.01713,-0.01025 -0.03425,-0.02049 -0.05124,-0.03245 -0.03411,-0.02391 -0.06499,-0.04953 -0.09391,-0.07857 -0.06149,-0.06149 -0.112724,-0.13663 -0.146892,-0.220321 -0.03243,-0.08027 -0.05124,-0.167377 -0.05124,-0.259604 0,-0.09053 0.01881,-0.179331 0.05124,-0.259604 0.03411,-0.08368 0.08535,-0.157129 0.146892,-0.220322 0.06149,-0.06149 0.136588,-0.112723 0.220309,-0.14688 0.0803,-0.03246 0.167387,-0.05124 0.259601,-0.05124 0.09054,0 0.177635,0.01878 0.259616,0.05124 0.08366,0.03415 0.158837,0.08539 0.220323,0.14688 0.06149,0.06149 0.112724,0.13663 0.146878,0.220322 0.03243,0.08027 0.05124,0.167376 0.05124,0.259604 0,0.08882 -0.01713,0.174208 -0.04955,0.254481 l -0.0014,0.0052 c -0.03425,0.08368 -0.08535,0.157126 -0.146891,0.22032 -0.03762,0.03758 -0.08198,0.07173 -0.128025,0.100764 -0.02569,0.01537 -0.05475,0.03074 -0.08198,0.0427 v 2.240791 c 0,0.08368 -0.03411,0.158836 -0.08886,0.213489 -0.05643,0.05636 -0.131534,0.09052 -0.2152,0.09052 z m -2.368895,-1.458563 h -0.771967 c 0.0205,-0.112724 0.03243,-0.225446 0.03762,-0.338168 0.0042,-0.09052 0.0042,-0.179332 -0.0014,-0.266436 h 0.43381 v -0.891533 c -0.02386,-0.01193 -0.04618,-0.02391 -0.06836,-0.03928 -0.04099,-0.02562 -0.07861,-0.05636 -0.114408,-0.09223 v 0 c -0.06149,-0.06149 -0.112724,-0.13663 -0.146878,-0.220322 -0.03243,-0.08027 -0.05124,-0.167377 -0.05124,-0.257896 0,-0.09053 0.01881,-0.177624 0.05124,-0.259604 0.03411,-0.08027 0.08198,-0.153714 0.141754,-0.2152 l 0.0056,-0.0052 c 0.06149,-0.06149 0.136588,-0.112724 0.220324,-0.146881 0.0803,-0.03245 0.167372,-0.05124 0.259601,-0.05124 0.09223,0 0.179333,0.01878 0.259601,0.05124 0.0803,0.03417 0.153714,0.08198 0.2152,0.143465 l 0.0056,0.0034 c 0.06148,0.06149 0.111039,0.133219 0.145165,0.215198 l 0.0014,0.0052 c 0.03243,0.08027 0.05124,0.167376 0.05124,0.259604 0,0.09052 -0.01881,0.179332 -0.05124,0.259604 -0.03411,0.08027 -0.08198,0.153713 -0.141753,0.215197 l -0.0056,0.0052 c -0.03243,0.03246 -0.06837,0.06149 -0.109355,0.08882 -0.02049,0.01362 -0.04099,0.02562 -0.06317,0.03587 v 1.198959 c 0,0.08368 -0.03411,0.158837 -0.08886,0.21349 -0.05461,0.05466 -0.131535,0.08882 -0.213487,0.08882 z M 57.556083,51.431004 c 0.0803,0.03246 0.167373,0.05124 0.259601,0.05124 0.09223,0 0.179333,-0.01878 0.259601,-0.05124 0.0803,-0.03415 0.153714,-0.08198 0.213501,-0.143465 l 0.0056,-0.0034 c 0.03411,-0.03415 0.06668,-0.07343 0.09223,-0.116135 0.01404,-0.02219 0.02737,-0.04611 0.03931,-0.07173 h 1.077696 v 0.930816 c 0.189567,-0.100763 0.394519,-0.174207 0.604595,-0.216905 v -1.016212 c 0,-0.08368 -0.03411,-0.158838 -0.08886,-0.213492 -0.05475,-0.05466 -0.12985,-0.08882 -0.213487,-0.08882 h -1.390249 c -0.0098,-0.0205 -0.02218,-0.04099 -0.03594,-0.06149 -0.02386,-0.03587 -0.05124,-0.07002 -0.08198,-0.100764 l -0.0056,-0.0051 c -0.06149,-0.06149 -0.136588,-0.112724 -0.220323,-0.146884 -0.0803,-0.03245 -0.167373,-0.05124 -0.259601,-0.05124 -0.08886,0 -0.175922,0.01708 -0.254478,0.04953 l -0.0056,0.0018 c -0.08366,0.03417 -0.157125,0.08539 -0.220323,0.14688 -0.06149,0.06149 -0.112724,0.13663 -0.146878,0.220322 -0.03243,0.08027 -0.05124,0.167376 -0.05124,0.259603 0,0.09052 0.01881,0.177624 0.05124,0.259605 0.03425,0.08368 0.08535,0.158837 0.146878,0.220321 0.06668,0.06149 0.140097,0.112723 0.223748,0.146882 z m 3.46025,-1.919703 v 2.333018 c 0.201527,0.05808 0.397944,0.150299 0.5824,0.283516 l 0.0205,0.01537 c 0,-0.0052 0.0014,-0.01025 0.0014,-0.01537 v -2.616534 c 0.02218,-0.01193 0.04436,-0.02391 0.06668,-0.03758 0.04099,-0.02562 0.07861,-0.05636 0.111039,-0.08882 0.06149,-0.0632 0.112724,-0.13663 0.146878,-0.220322 0.03243,-0.08027 0.05124,-0.167376 0.05124,-0.259604 0,-0.08882 -0.01713,-0.174206 -0.04955,-0.25448 l -0.0014,-0.0051 c -0.03425,-0.08368 -0.08535,-0.157128 -0.146877,-0.22032 -0.06149,-0.06149 -0.136588,-0.112724 -0.220324,-0.146881 -0.0803,-0.03245 -0.167372,-0.05124 -0.259601,-0.05124 -0.09054,0 -0.177634,0.01878 -0.259601,0.05124 -0.08366,0.03417 -0.158838,0.08539 -0.220323,0.146881 -0.06149,0.06149 -0.112724,0.13663 -0.146878,0.22032 -0.03243,0.08027 -0.05124,0.167377 -0.05124,0.259606 0,0.08882 0.01713,0.174207 0.04955,0.254478 l 0.0014,0.0051 c 0.03411,0.08368 0.08535,0.157129 0.146878,0.220322 0.03243,0.03246 0.06836,0.06149 0.10767,0.08711 l 0.0042,0.0018 c 0.02218,0.01362 0.04268,0.02562 0.06668,0.03758 z m 1.651548,-0.573861 v 3.412426 c 0.08198,-0.08369 0.169099,-0.15713 0.257903,-0.222031 0.111039,-0.08027 0.227159,-0.146881 0.346705,-0.198119 v -2.691682 h 1.97265 c 0.0098,0.01708 0.02049,0.03417 0.03243,0.05124 0.02386,0.03417 0.04955,0.06491 0.07861,0.09394 0.06149,0.06149 0.136587,0.112724 0.220323,0.146881 0.0803,0.03245 0.167373,0.05124 0.259601,0.05124 0.09054,0 0.179333,-0.01878 0.259601,-0.05124 0.08367,-0.03417 0.158838,-0.08539 0.220324,-0.146881 0.06148,-0.06149 0.112723,-0.13663 0.146877,-0.220322 0.03243,-0.08027 0.05124,-0.167375 0.05124,-0.259604 0,-0.09051 -0.01881,-0.177624 -0.05124,-0.259604 -0.03425,-0.08368 -0.08535,-0.158836 -0.146877,-0.22032 -0.06486,-0.06149 -0.140097,-0.112724 -0.223735,-0.146882 -0.0803,-0.03245 -0.167373,-0.05124 -0.257902,-0.05124 -0.08886,0 -0.174196,0.01708 -0.254478,0.04953 l -0.0056,0.0018 c -0.08366,0.03417 -0.157111,0.08539 -0.220309,0.146882 -0.03762,0.03758 -0.07173,0.08198 -0.100792,0.128095 -0.01544,0.02562 -0.03074,0.05465 -0.04268,0.08198 h -2.240785 c -0.08366,0 -0.158838,0.03415 -0.213487,0.08882 -0.05475,0.05636 -0.08886,0.131506 -0.08886,0.215198 z m 1.45857,2.368886 v 0.46797 c 0.06149,0.0034 0.124656,0.0086 0.18617,0.01878 0.143466,0.02049 0.283508,0.05636 0.418439,0.105887 v -0.288639 h 0.891527 c 0.01263,0.02391 0.02386,0.04612 0.03931,0.06832 0.02569,0.04099 0.05643,0.07857 0.09223,0.114437 v 0 c 0.06149,0.06148 0.136588,0.112723 0.220324,0.146881 0.0803,0.03246 0.167373,0.05124 0.257888,0.05124 0.09054,0 0.177635,-0.01878 0.259602,-0.05124 0.0803,-0.03417 0.153714,-0.08198 0.215199,-0.141758 l 0.0056,-0.0052 c 0.06149,-0.06149 0.112724,-0.13663 0.146878,-0.22032 0.03243,-0.08027 0.05124,-0.167376 0.05124,-0.259604 0,-0.09223 -0.01881,-0.179332 -0.05124,-0.259604 -0.03411,-0.08027 -0.08198,-0.153714 -0.143466,-0.215198 l -0.0042,-0.0052 c -0.06149,-0.06149 -0.133219,-0.111011 -0.215185,-0.145174 l -0.0056,-0.0018 c -0.0803,-0.03245 -0.167373,-0.05124 -0.259602,-0.05124 -0.09054,0 -0.179333,0.01878 -0.259601,0.05124 -0.0803,0.03415 -0.153714,0.08198 -0.2152,0.141755 l -0.0056,0.0052 c -0.03243,0.03246 -0.06149,0.06832 -0.08886,0.109313 -0.01404,0.02049 -0.02569,0.04099 -0.03594,0.06318 h -1.198955 c -0.08366,0 -0.158838,0.03415 -0.213487,0.08882 -0.05475,0.05295 -0.08886,0.128095 -0.08886,0.211782 z m -8.68136,2.93079 c 0.03243,0.08027 0.05124,0.167377 0.05124,0.259604 0,0.09223 -0.01881,0.179332 -0.05124,0.259604 -0.03411,0.08027 -0.08198,0.153713 -0.143466,0.213491 l -0.0042,0.0052 c -0.03411,0.03417 -0.07342,0.06661 -0.116092,0.09223 -0.02218,0.01362 -0.04619,0.02732 -0.07173,0.03928 v 1.077698 h 1.118687 v 0.05294 c 0,0.04099 0.0014,0.08369 0.0042,0.128095 0.0042,0.03758 -0.01404,0.07516 -0.04618,0.09906 -0.146878,0.104188 -0.278384,0.21349 -0.397944,0.324505 h -0.976919 c -0.08367,0 -0.158838,-0.03417 -0.213501,-0.08882 -0.05461,-0.05465 -0.08886,-0.129808 -0.08886,-0.21349 v -1.390282 c -0.02049,-0.01025 -0.04099,-0.02221 -0.06148,-0.03587 -0.03594,-0.02391 -0.07005,-0.05124 -0.100792,-0.08198 l -0.0056,-0.0052 c -0.06149,-0.06148 -0.112724,-0.13663 -0.146878,-0.220322 -0.03243,-0.08027 -0.05124,-0.167377 -0.05124,-0.259602 0,-0.08882 0.01713,-0.17421 0.04955,-0.254482 l 0.0014,-0.0052 c 0.03411,-0.08368 0.08535,-0.157129 0.146877,-0.220322 0.06149,-0.06149 0.136588,-0.112724 0.220324,-0.146882 0.0803,-0.03245 0.167372,-0.05124 0.259601,-0.05124 0.09054,0 0.17762,0.01878 0.259601,0.05124 0.08366,0.03417 0.158852,0.08539 0.220338,0.146882 0.05812,0.0649 0.109354,0.140055 0.143466,0.223737 z m -1.919698,3.458538 h 1.605448 c -0.02737,0.06149 -0.05124,0.124684 -0.07342,0.186164 -0.04787,0.138343 -0.08198,0.276683 -0.102476,0.416732 h -1.429526 c -0.01263,0.02221 -0.02386,0.0444 -0.03762,0.06661 -0.02569,0.04099 -0.05643,0.07857 -0.08886,0.111011 -0.06317,0.06318 -0.136588,0.112723 -0.220323,0.146882 -0.0803,0.03245 -0.167373,0.05124 -0.259616,0.05124 -0.08886,0 -0.174195,-0.01708 -0.254463,-0.04953 l -0.0056,-0.0018 c -0.08366,-0.03417 -0.157125,-0.08539 -0.220323,-0.146882 -0.06149,-0.06149 -0.112724,-0.13663 -0.146878,-0.220322 -0.03243,-0.08027 -0.05124,-0.167375 -0.05124,-0.259602 0,-0.09052 0.01881,-0.177625 0.05124,-0.259604 0.03425,-0.08369 0.08535,-0.158837 0.146878,-0.220322 0.06148,-0.06149 0.136587,-0.112724 0.220323,-0.146882 0.0803,-0.03245 0.167373,-0.05124 0.259601,-0.05124 0.08886,0 0.174209,0.01708 0.254478,0.04953 l 0.0056,0.0018 c 0.08366,0.03417 0.157125,0.08539 0.220323,0.146881 0.03243,0.03245 0.06149,0.06832 0.08704,0.107599 l 0.0042,0.0052 c 0.01123,0.02221 0.02386,0.0444 0.03594,0.06661 z m -0.573866,1.653267 h 2.088784 c 0.06499,0.206659 0.158838,0.406486 0.278398,0.596065 v 0.0018 l 0.0042,0.0069 h -2.069976 v 1.972648 c 0.01713,0.01025 0.03425,0.0205 0.05124,0.03246 0.03411,0.02391 0.06499,0.04952 0.09391,0.07857 0.06148,0.06149 0.112723,0.13663 0.146891,0.220322 0.03243,0.08027 0.05124,0.167376 0.05124,0.259603 0,0.09052 -0.01881,0.179333 -0.05124,0.259604 -0.03411,0.08369 -0.08535,0.157129 -0.146891,0.220322 -0.06149,0.06148 -0.136588,0.112723 -0.220324,0.146882 -0.0803,0.03245 -0.167372,0.05124 -0.259601,0.05124 -0.09054,0 -0.17762,-0.0188 -0.259601,-0.05124 -0.08366,-0.03417 -0.158838,-0.08539 -0.220323,-0.146882 -0.06149,-0.06661 -0.112724,-0.141757 -0.146878,-0.223738 -0.03243,-0.08027 -0.05124,-0.167377 -0.05124,-0.259604 0,-0.08882 0.01713,-0.174207 0.04955,-0.25448 l 0.0014,-0.0052 c 0.03425,-0.08368 0.08535,-0.157129 0.146878,-0.220322 0.03762,-0.03758 0.08198,-0.07173 0.128165,-0.100763 0.02569,-0.01537 0.05475,-0.03076 0.08198,-0.0427 v -2.240791 c 0,-0.08368 0.03411,-0.158837 0.08886,-0.21349 0.05643,-0.05294 0.131534,-0.0871 0.2152,-0.0871 z m 2.368894,1.458565 h 0.563604 c -0.01881,0.112723 -0.02906,0.223737 -0.03243,0.333044 -0.0042,0.09223 -0.0014,0.182747 0.0056,0.271559 h -0.233982 v 0.891535 c 0.02386,0.01193 0.04618,0.02391 0.06836,0.03928 0.04099,0.02562 0.07861,0.05636 0.114408,0.09223 v 0 c 0.06149,0.06148 0.112724,0.13663 0.146892,0.220322 0.03243,0.08027 0.05124,0.167375 0.05124,0.259604 0,0.09223 -0.01881,0.177623 -0.05124,0.259604 -0.03425,0.08027 -0.08198,0.153712 -0.141768,0.215198 l -0.0056,0.0052 c -0.06149,0.06149 -0.136588,0.112723 -0.220309,0.14688 -0.0803,0.03246 -0.167373,0.05124 -0.259602,0.05124 -0.09223,0 -0.179333,-0.0188 -0.259601,-0.05124 -0.0803,-0.03415 -0.153728,-0.08198 -0.215213,-0.143465 l -0.0056,-0.0034 c -0.06148,-0.06149 -0.111039,-0.133219 -0.145165,-0.215198 l -0.0014,-0.0052 c -0.03243,-0.08027 -0.05124,-0.167377 -0.05124,-0.259603 0,-0.09052 0.01881,-0.179331 0.05124,-0.259604 0.03411,-0.08027 0.08198,-0.153714 0.141753,-0.215198 l 0.0056,-0.0052 c 0.03243,-0.03245 0.06836,-0.06149 0.109354,-0.08882 0.0205,-0.01362 0.04099,-0.02562 0.06317,-0.03587 V 61.11151 c 0,-0.08369 0.03411,-0.158837 0.08886,-0.213492 0.05475,-0.05807 0.129849,-0.09051 0.213501,-0.09051 z m 8.196298,7.118611 v -2.389381 c -0.213487,-0.06661 -0.415014,-0.174208 -0.59947,-0.326212 l -0.0042,-0.0034 v 2.720717 c -0.02218,0.01193 -0.04436,0.02391 -0.06668,0.03758 -0.04099,0.02562 -0.07861,0.05636 -0.111039,0.08882 -0.06149,0.06318 -0.112724,0.13663 -0.146892,0.220322 -0.03243,0.08027 -0.05124,0.167376 -0.05124,0.259603 0,0.08882 0.01713,0.174207 0.04955,0.25448 l 0.0014,0.0052 c 0.03411,0.08368 0.08535,0.157131 0.146892,0.220326 0.06149,0.06147 0.136588,0.11271 0.220309,0.146878 0.0803,0.03243 0.167387,0.05122 0.259615,0.05122 0.09054,0 0.177621,-0.0188 0.259602,-0.05122 0.08366,-0.0342 0.158838,-0.08539 0.220323,-0.146878 0.06149,-0.06147 0.112724,-0.13663 0.146878,-0.220326 0.03243,-0.08027 0.05124,-0.167376 0.05124,-0.259603 0,-0.08882 -0.01713,-0.174208 -0.04955,-0.25448 l -0.0014,-0.0052 c -0.03425,-0.08368 -0.08535,-0.157128 -0.146877,-0.220322 -0.03243,-0.03245 -0.06836,-0.06149 -0.10767,-0.08711 l -0.0056,-0.0034 c -0.02218,-0.01362 -0.04436,-0.02562 -0.06668,-0.03758 z m -1.653261,0.573863 v -3.443169 c -0.07173,0.07343 -0.146877,0.138343 -0.225447,0.198117 -0.121287,0.09223 -0.247641,0.16567 -0.379161,0.223739 v 2.722425 h -1.972649 c -0.0098,-0.01708 -0.02049,-0.03417 -0.03243,-0.05124 -0.02386,-0.03417 -0.04955,-0.06491 -0.07861,-0.09394 -0.06149,-0.06149 -0.136588,-0.112723 -0.22031,-0.14688 -0.0803,-0.03246 -0.167386,-0.05124 -0.259601,-0.05124 -0.09054,0 -0.179333,0.01878 -0.259601,0.05124 -0.08366,0.03417 -0.157139,0.08539 -0.220337,0.14688 -0.06149,0.06149 -0.112724,0.13663 -0.146878,0.220322 -0.03243,0.08027 -0.05124,0.167377 -0.05124,0.259604 0,0.09053 0.01881,0.177621 0.05124,0.259603 0.03411,0.08368 0.08535,0.158833 0.146878,0.220325 0.06148,0.06147 0.136587,0.112709 0.220337,0.146879 0.0803,0.03243 0.167359,0.05122 0.259601,0.05122 0.08886,0 0.174209,-0.0171 0.254478,-0.04953 l 0.0056,-0.0015 c 0.08367,-0.03413 0.157125,-0.08539 0.220323,-0.146886 0.03762,-0.03759 0.07173,-0.08198 0.100792,-0.128095 0.0153,-0.02565 0.03074,-0.05469 0.04268,-0.08198 h 2.24081 c 0.08366,0 0.158824,-0.0342 0.213487,-0.08882 0.05643,-0.05807 0.09054,-0.133219 0.09054,-0.216905 z m -1.458556,-2.368889 v -0.497005 c -0.133219,-0.0069 -0.266438,-0.02732 -0.396245,-0.05977 -0.07005,-0.01707 -0.140098,-0.03928 -0.208364,-0.06318 v 0.319382 h -0.891541 c -0.01123,-0.02391 -0.02386,-0.04612 -0.03931,-0.06832 -0.02569,-0.04099 -0.05643,-0.07857 -0.09223,-0.114437 v 0 c -0.06149,-0.06148 -0.136588,-0.112723 -0.220323,-0.14688 -0.0803,-0.03246 -0.167373,-0.05124 -0.257889,-0.05124 -0.09054,0 -0.177635,0.01878 -0.259601,0.05124 -0.0803,0.03417 -0.153728,0.08198 -0.215214,0.141758 l -0.0056,0.0034 c -0.06149,0.06149 -0.112724,0.13663 -0.146878,0.220322 -0.03243,0.08027 -0.05124,0.167376 -0.05124,0.259604 0,0.09223 0.01881,0.179332 0.05124,0.259604 0.03425,0.08027 0.08198,0.153713 0.143467,0.215197 l 0.0042,0.0052 c 0.06149,0.06149 0.133219,0.111011 0.2152,0.145173 l 0.0056,0.0018 c 0.0803,0.03246 0.167387,0.05124 0.259615,0.05124 0.09054,0 0.17762,-0.0188 0.259601,-0.05124 0.0803,-0.03417 0.153714,-0.08198 0.2152,-0.141756 l 0.0056,-0.0052 c 0.03243,-0.03246 0.06149,-0.06832 0.08886,-0.109313 0.01404,-0.02049 0.02569,-0.04099 0.03594,-0.06318 h 1.198969 c 0.08367,0 0.158824,-0.03417 0.213473,-0.08882 0.05475,-0.05465 0.08886,-0.129808 0.08886,-0.213491 z"
       id="path1"
       style="stroke-width:0.170792" /></g></svg>
